<?xml version="1.0" encoding="UTF-8"?>
<svg xmlns="http://www.w3.org/2000/svg" xmlns:xlink="http://www.w3.org/1999/xlink" width="4000" height="2500" viewBox="0 0 4000 2500">
<defs>
<linearGradient id="linear-pattern-0" gradientUnits="userSpaceOnUse" x1="0.000000000000000111" y1="0" x2="1" y2="0" gradientTransform="matrix(3250, -3250, 3250, 3250, 375, 2875)">
<stop offset="0" stop-color="rgb(85.496521%, 85.667419%, 85.554504%)" stop-opacity="1"/>
<stop offset="0.015625" stop-color="rgb(85.68573%, 85.719299%, 85.559082%)" stop-opacity="1"/>
<stop offset="0.03125" stop-color="rgb(86.068726%, 86.003113%, 85.809326%)" stop-opacity="1"/>
<stop offset="0.0625" stop-color="rgb(86.457825%, 86.468506%, 86.303711%)" stop-opacity="1"/>
<stop offset="0.078125" stop-color="rgb(86.839294%, 86.764526%, 86.57074%)" stop-opacity="1"/>
<stop offset="0.09375" stop-color="rgb(87.049866%, 87.002563%, 86.820984%)" stop-opacity="1"/>
<stop offset="0.109375" stop-color="rgb(87.243652%, 87.242126%, 87.078857%)" stop-opacity="1"/>
<stop offset="0.125" stop-color="rgb(87.442017%, 87.478638%, 87.330627%)" stop-opacity="1"/>
<stop offset="0.140625" stop-color="rgb(87.637329%, 87.718201%, 87.588501%)" stop-opacity="1"/>
<stop offset="0.15625" stop-color="rgb(87.998962%, 88.002014%, 87.846375%)" stop-opacity="1"/>
<stop offset="0.171875" stop-color="rgb(88.232422%, 88.40332%, 88.171387%)" stop-opacity="1"/>
<stop offset="0.1875" stop-color="rgb(88.42926%, 88.674927%, 88.439941%)" stop-opacity="1"/>
<stop offset="0.203125" stop-color="rgb(88.62915%, 88.91449%, 88.699341%)" stop-opacity="1"/>
<stop offset="0.21875" stop-color="rgb(88.825989%, 89.157104%, 88.957214%)" stop-opacity="1"/>
<stop offset="0.234375" stop-color="rgb(89.167786%, 89.299011%, 89.163208%)" stop-opacity="1"/>
<stop offset="0.25" stop-color="rgb(89.407349%, 89.506531%, 89.268494%)" stop-opacity="1"/>
<stop offset="0.265625" stop-color="rgb(89.604187%, 89.749146%, 89.486694%)" stop-opacity="1"/>
<stop offset="0.28125" stop-color="rgb(89.944458%, 90.031433%, 89.753723%)" stop-opacity="1"/>
<stop offset="0.296875" stop-color="rgb(90.197754%, 90.292358%, 90.0177%)" stop-opacity="1"/>
<stop offset="0.3125" stop-color="rgb(90.394592%, 90.534973%, 90.281677%)" stop-opacity="1"/>
<stop offset="0.328125" stop-color="rgb(90.596008%, 90.782166%, 90.545654%)" stop-opacity="1"/>
<stop offset="0.34375" stop-color="rgb(90.792847%, 91.02478%, 90.811157%)" stop-opacity="1"/>
<stop offset="0.359375" stop-color="rgb(91.120911%, 91.31012%, 91.079712%)" stop-opacity="1"/>
<stop offset="0.375" stop-color="rgb(91.389465%, 91.575623%, 91.349792%)" stop-opacity="1"/>
<stop offset="0.390625" stop-color="rgb(91.58783%, 91.824341%, 91.616821%)" stop-opacity="1"/>
<stop offset="0.40625" stop-color="rgb(91.899109%, 91.992188%, 91.841125%)" stop-opacity="1"/>
<stop offset="0.421875" stop-color="rgb(92.173767%, 92.189026%, 92.079163%)" stop-opacity="1"/>
<stop offset="0.4375" stop-color="rgb(92.372131%, 92.43927%, 92.350769%)" stop-opacity="1"/>
<stop offset="0.453125" stop-color="rgb(92.575073%, 92.686462%, 92.617798%)" stop-opacity="1"/>
<stop offset="0.46875" stop-color="rgb(92.774963%, 92.938232%, 92.892456%)" stop-opacity="1"/>
<stop offset="0.484375" stop-color="rgb(92.979431%, 93.186951%, 93.161011%)" stop-opacity="1"/>
<stop offset="0.5" stop-color="rgb(93.177795%, 93.438721%, 93.435669%)" stop-opacity="1"/>
<stop offset="0.515625" stop-color="rgb(93.476868%, 93.717957%, 93.710327%)" stop-opacity="1"/>
<stop offset="0.53125" stop-color="rgb(93.870544%, 94.029236%, 93.995667%)" stop-opacity="1"/>
<stop offset="0.546875" stop-color="rgb(94.17572%, 94.311523%, 94.271851%)" stop-opacity="1"/>
<stop offset="0.5625" stop-color="rgb(94.37561%, 94.566345%, 94.551086%)" stop-opacity="1"/>
<stop offset="0.578125" stop-color="rgb(94.664001%, 94.844055%, 94.828796%)" stop-opacity="1"/>
<stop offset="0.59375" stop-color="rgb(94.978333%, 95.133972%, 95.114136%)" stop-opacity="1"/>
<stop offset="0.609375" stop-color="rgb(95.179749%, 95.385742%, 95.388794%)" stop-opacity="1"/>
<stop offset="0.625" stop-color="rgb(95.46051%, 95.66803%, 95.675659%)" stop-opacity="1"/>
<stop offset="0.640625" stop-color="rgb(95.779419%, 95.887756%, 95.927429%)" stop-opacity="1"/>
<stop offset="0.65625" stop-color="rgb(95.973206%, 96.02356%, 96.156311%)" stop-opacity="1"/>
<stop offset="0.6875" stop-color="rgb(96.246338%, 96.362305%, 96.463013%)" stop-opacity="1"/>
<stop offset="0.71875" stop-color="rgb(96.646118%, 96.809387%, 96.868896%)" stop-opacity="1"/>
<stop offset="0.734375" stop-color="rgb(96.986389%, 97.111511%, 97.291565%)" stop-opacity="1"/>
<stop offset="0.75" stop-color="rgb(97.189331%, 97.369385%, 97.525024%)" stop-opacity="1"/>
<stop offset="0.765625" stop-color="rgb(97.396851%, 97.621155%, 97.666931%)" stop-opacity="1"/>
<stop offset="0.78125" stop-color="rgb(97.599792%, 97.88208%, 97.955322%)" stop-opacity="1"/>
<stop offset="0.8125" stop-color="rgb(97.845459%, 98.150635%, 98.236084%)" stop-opacity="1"/>
<stop offset="0.84375" stop-color="rgb(98.23761%, 98.472595%, 98.536682%)" stop-opacity="1"/>
<stop offset="0.859375" stop-color="rgb(98.603821%, 98.780823%, 98.826599%)" stop-opacity="1"/>
<stop offset="0.875" stop-color="rgb(98.808289%, 99.0448%, 99.119568%)" stop-opacity="1"/>
<stop offset="0.90625" stop-color="rgb(99.03717%, 99.308777%, 99.403381%)" stop-opacity="1"/>
<stop offset="0.9375" stop-color="rgb(99.430847%, 99.635315%, 99.708557%)" stop-opacity="1"/>
<stop offset="1" stop-color="rgb(99.816895%, 99.940491%, 99.987793%)" stop-opacity="1"/>
</linearGradient>
</defs>
<path fill-rule="nonzero" fill="url(#linear-pattern-0)" d="M -1250 1250 L 2000 4500 L 5250 1250 L 2000 -2000 Z M -1250 1250 "/>
<path fill-rule="nonzero" fill="rgb(48.904419%, 74.900818%, 88.290405%)" fill-opacity="1" d="M 653.074219 1842.148438 C 507.492188 1842.160156 244.601562 1622.460938 -31.589844 1391.648438 C -354.585938 1121.730469 -688.570312 842.609375 -830.117188 930.488281 C -924.152344 988.851562 -925.375 1201.980469 -833.851562 1582.050781 L -837.5 1582.929688 C -929.445312 1201.078125 -927.679688 986.628906 -832.09375 927.300781 C -688.253906 838.019531 -353.199219 1118 -29.1875 1388.78125 C 123.675781 1516.511719 281.742188 1648.609375 412.460938 1734.738281 C 558.011719 1830.640625 655.132812 1859.421875 709.378906 1822.730469 C 809.832031 1754.800781 773.074219 1458.710938 597.003906 917.519531 C 431.460938 408.710938 394.054688 134.398438 482.636719 78.929688 C 595.386719 8.308594 890.035156 292.03125 1201.988281 592.378906 C 1529.660156 907.871094 1868.480469 1234.089844 2004.640625 1152.53125 C 2106.128906 1091.71875 2084.601562 811.179688 1938.828125 294.871094 C 1806.601562 -173.488281 1798.140625 -440.640625 1912.96875 -521.851562 C 2077.96875 -638.53125 2472.171875 -360.191406 2889.511719 -65.511719 C 3273.269531 205.46875 3667.921875 484.109375 3918.839844 484.148438 C 3970.179688 484.160156 4015.449219 472.5 4053.441406 446.730469 C 4220.128906 333.628906 4224.660156 -39.089844 4067.269531 -692.730469 L 4070.910156 -693.609375 C 4228.710938 -38.269531 4223.679688 335.75 4055.550781 449.828125 C 4017 475.980469 3971.039062 487.808594 3919.070312 487.808594 C 3666.621094 487.828125 3271.570312 208.871094 2887.351562 -62.441406 C 2471.121094 -356.339844 2077.96875 -633.949219 1915.140625 -518.789062 C 1801.769531 -438.609375 1810.691406 -172.789062 1942.441406 293.851562 C 2088.738281 812.011719 2109.710938 1093.941406 2006.558594 1155.738281 C 1991.71875 1164.628906 1974.558594 1168.820312 1955.371094 1168.820312 C 1795.289062 1168.839844 1492.890625 877.671875 1199.390625 595.089844 C 888.519531 295.769531 594.890625 13.050781 484.625 82.109375 C 397.710938 136.53125 435.636719 409.421875 600.570312 916.359375 C 777.226562 1459.351562 813.507812 1756.851562 711.480469 1825.839844 C 695.035156 1836.960938 675.425781 1842.140625 653.074219 1842.148438 "/>
<path fill-rule="nonzero" fill="rgb(72.010803%, 73.324585%, 86.592102%)" fill-opacity="1" d="M 632.945312 1874.601562 C 485.050781 1874.621094 223.285156 1662.699219 -51.617188 1440.171875 C -375.386719 1178.078125 -710.164062 907.050781 -854.582031 997.46875 C -950.019531 1057.21875 -954.269531 1267.539062 -867.570312 1640.449219 L -871.222656 1641.289062 C -958.328125 1266.640625 -953.535156 1055 -856.570312 994.289062 C -709.902344 902.46875 -374.054688 1174.328125 -49.257812 1437.25 C 104.035156 1561.339844 262.550781 1689.660156 393.882812 1772.710938 C 540.125 1865.179688 638.097656 1891.730469 693.410156 1853.898438 C 795.222656 1784.238281 762.226562 1492.609375 592.53125 962.328125 C 432.867188 463.359375 398.960938 193.160156 488.878906 136.308594 C 603.753906 63.660156 898.476562 339.738281 1210.488281 632.03125 C 1538.160156 938.988281 1876.988281 1256.410156 2015.878906 1172.511719 C 2119.019531 1110.199219 2101.308594 833.621094 1961.738281 326.960938 C 1835.410156 -131.710938 1830.441406 -395.070312 1946.539062 -478.148438 C 2114.671875 -598.441406 2510.949219 -328.851562 2930.519531 -43.421875 C 3312.550781 216.46875 3705.328125 483.640625 3959.769531 483.671875 C 4014.890625 483.679688 4063.46875 471.148438 4104.089844 443.308594 C 4272.910156 327.578125 4282.570312 -40.109375 4133.621094 -680.78125 L 4137.269531 -681.628906 C 4286.609375 -39.28125 4276.449219 329.699219 4106.21875 446.398438 C 4065.011719 474.640625 4015.75 487.339844 3959.980469 487.339844 C 3704.058594 487.359375 3310.898438 219.890625 2928.410156 -40.320312 C 2509.960938 -324.988281 2114.730469 -593.878906 1948.730469 -475.101562 C 1834.050781 -393.039062 1839.488281 -131.011719 1965.359375 325.96875 C 2105.441406 834.46875 2122.601562 1112.429688 2017.820312 1175.71875 C 2001.980469 1185.289062 1983.609375 1189.789062 1963.070312 1189.789062 C 1800.410156 1189.820312 1499.769531 908.160156 1207.929688 634.769531 C 897.003906 343.488281 603.316406 68.390625 490.882812 139.480469 C 402.613281 195.289062 437.03125 464.070312 596.105469 961.191406 C 766.367188 1493.261719 798.890625 1786.28125 695.527344 1856.988281 C 677.960938 1869.011719 656.941406 1874.589844 632.945312 1874.601562 "/>
<path fill-rule="nonzero" fill="rgb(53.707886%, 82.05719%, 93.109131%)" fill-opacity="1" d="M 611.878906 1906.949219 C 461.664062 1906.96875 200.992188 1702.761719 -72.660156 1488.390625 C -397.367188 1234.03125 -733.128906 971.011719 -880.457031 1064.058594 C -977.296875 1125.21875 -984.554688 1332.800781 -902.636719 1698.660156 L -906.292969 1699.480469 C -988.601562 1331.878906 -980.804688 1123 -882.460938 1060.890625 C -732.902344 966.429688 -396.078125 1230.28125 -70.347656 1485.441406 C 249.113281 1735.679688 550.859375 1972.03125 676.808594 1884.859375 C 779.964844 1813.449219 750.691406 1526.191406 587.320312 1006.660156 C 433.46875 517.359375 403.035156 251.191406 494.277344 192.910156 C 611.371094 118.140625 906.257812 386.699219 1218.46875 671.019531 C 1546.328125 969.589844 1885.339844 1278.308594 2027.039062 1192.011719 C 2131.839844 1128.171875 2117.941406 855.449219 1984.519531 358.261719 C 1864.019531 -90.839844 1862.480469 -350.460938 1979.820312 -435.421875 C 2151.070312 -559.410156 2549.691406 -298.511719 2971.691406 -22.269531 C 3352.019531 226.691406 3742.898438 482.539062 4000.828125 482.558594 C 4060 482.558594 4112.148438 469.101562 4155.589844 439.011719 C 4326.511719 320.640625 4341.25 -42.148438 4200.660156 -670.078125 L 4204.320312 -670.898438 C 4345.28125 -41.308594 4330.039062 322.75 4157.730469 442.089844 C 4113.691406 472.589844 4060.851562 486.230469 4001.019531 486.238281 C 3741.671875 486.261719 3350.410156 230.121094 2969.640625 -19.128906 C 2548.738281 -294.640625 2151.179688 -554.878906 1982.019531 -432.378906 C 1866.089844 -348.441406 1868.089844 -90.140625 1988.148438 357.289062 C 2122.050781 856.300781 2135.410156 1130.390625 2029 1195.210938 C 1884.910156 1282.980469 1544.828125 973.289062 1215.949219 673.789062 C 904.820312 390.460938 610.957031 122.839844 496.292969 196.070312 C 406.679688 253.308594 437.625 518.078125 590.898438 1005.53125 C 754.828125 1526.839844 783.628906 1815.480469 678.941406 1887.941406 C 660.175781 1900.929688 637.636719 1906.941406 611.878906 1906.949219 "/>
<path fill-rule="nonzero" fill="rgb(51.611328%, 84.362793%, 95.422363%)" fill-opacity="1" d="M 589.882812 1939.210938 C 437.332031 1939.230469 177.699219 1742.609375 -94.742188 1536.308594 C -420.5625 1289.601562 -757.484375 1034.488281 -907.789062 1130.238281 C -1006.019531 1192.820312 -1016.25 1397.71875 -939.066406 1756.648438 L -942.734375 1757.441406 C -1020.289062 1396.800781 -1009.519531 1190.601562 -909.804688 1127.070312 C -757.289062 1029.921875 -419.324219 1285.828125 -92.476562 1533.328125 C 228.253906 1776.191406 531.199219 2005.578125 659.613281 1915.621094 C 764.101562 1842.429688 738.515625 1559.429688 581.390625 1050.46875 C 433.285156 570.71875 406.285156 308.480469 498.839844 248.761719 C 618.121094 171.808594 913.371094 432.941406 1225.960938 709.429688 C 1554.171875 999.730469 1893.550781 1299.910156 2038.089844 1211.101562 C 2144.539062 1145.699219 2134.390625 876.738281 2007.070312 388.859375 C 1892.339844 -50.800781 1894.191406 -306.738281 2012.738281 -393.589844 C 2187.269531 -521.441406 2588.421875 -269.109375 3013.140625 -1.949219 C 3391.730469 236.191406 3780.730469 480.851562 4042.078125 480.871094 C 4105.609375 480.878906 4161.570312 466.429688 4208.039062 433.910156 C 4381.011719 312.871094 4400.769531 -45.089844 4268.441406 -660.441406 L 4272.101562 -661.21875 C 4404.78125 -44.238281 4384.53125 314.980469 4210.191406 436.980469 C 4163.109375 469.921875 4106.460938 484.558594 4042.25 484.558594 C 3779.550781 484.570312 3390.171875 239.628906 3011.148438 1.21875 C 2587.53125 -265.238281 2187.410156 -516.910156 2014.949219 -390.570312 C 1897.789062 -304.730469 1896.398438 -50.089844 2010.699219 387.921875 C 2138.488281 877.601562 2148.101562 1147.921875 2040.050781 1214.300781 C 2021.980469 1225.410156 2000.949219 1230.589844 1977.390625 1230.589844 C 1809.511719 1230.609375 1512.191406 967.609375 1223.480469 712.238281 C 911.984375 436.71875 617.746094 176.488281 500.875 251.910156 C 409.925781 310.601562 437.433594 571.449219 584.972656 1049.359375 C 742.636719 1560.078125 767.757812 1844.441406 661.765625 1918.691406 C 641.710938 1932.738281 617.546875 1939.210938 589.882812 1939.210938 "/>
<path fill-rule="nonzero" fill="rgb(45.1828%, 50.822449%, 78.927612%)" fill-opacity="1" d="M 566.917969 1971.398438 C 412.046875 1971.421875 153.4375 1782.308594 -117.816406 1583.96875 C -444.925781 1344.800781 -783.15625 1097.488281 -936.535156 1196.050781 C -1036.148438 1260.070312 -1049.339844 1462.359375 -976.859375 1814.46875 L -980.53125 1815.21875 C -1053.359375 1461.421875 -1039.640625 1257.851562 -938.5625 1192.890625 C -783.054688 1092.921875 -443.734375 1341.019531 -115.601562 1580.941406 C 206.566406 1816.511719 510.867188 2039.019531 641.800781 1946.179688 C 747.589844 1871.179688 725.640625 1592.371094 574.699219 1093.820312 C 432.28125 623.449219 408.679688 365.058594 502.539062 303.859375 C 624.078125 224.640625 919.828125 478.46875 1232.929688 747.21875 C 1561.660156 1029.378906 1901.589844 1321.148438 2049.058594 1229.738281 C 2157.171875 1162.75 2150.769531 897.460938 2029.488281 418.738281 C 1920.460938 -11.628906 1925.671875 -263.980469 2045.378906 -352.730469 C 2223.210938 -484.550781 2627.171875 -240.710938 3054.839844 17.449219 C 3431.679688 244.929688 3818.738281 478.558594 4083.441406 478.570312 C 4151.648438 478.570312 4211.71875 463.058594 4261.421875 427.929688 C 4436.421875 304.210938 4461.140625 -49.03125 4337 -652 L 4340.671875 -652.761719 C 4465.148438 -48.171875 4439.929688 306.320312 4263.578125 430.988281 C 4213.269531 466.558594 4152.488281 482.261719 4083.589844 482.261719 C 3817.601562 482.269531 3430.160156 248.390625 3052.898438 20.660156 C 2626.351562 -236.828125 2223.441406 -480.058594 2047.609375 -349.710938 C 1929.261719 -261.980469 1924.519531 -10.921875 2033.121094 417.808594 C 2154.859375 898.328125 2160.710938 1164.960938 2051.03125 1232.929688 C 2031.71875 1244.898438 2009.210938 1250.460938 1983.980469 1250.460938 C 1813.480469 1250.480469 1517.730469 996.621094 1230.488281 750.070312 C 918.480469 482.25 623.78125 229.308594 504.585938 307.011719 C 412.3125 367.171875 436.421875 624.179688 578.285156 1092.730469 C 729.757812 1593.019531 751.242188 1873.191406 643.96875 1949.238281 C 622.542969 1964.429688 596.625 1971.398438 566.917969 1971.398438 "/>
<path fill-rule="nonzero" fill="rgb(45.898438%, 82.356262%, 91.534424%)" fill-opacity="1" d="M 542.941406 2003.558594 C 385.746094 2003.578125 128.128906 1821.878906 -141.960938 1631.398438 C -470.53125 1399.679688 -810.289062 1160.070312 -966.789062 1261.539062 C -1067.78125 1327.03125 -1083.898438 1526.761719 -1016.058594 1872.171875 L -1019.730469 1872.890625 C -1087.910156 1525.808594 -1071.25 1324.808594 -968.828125 1258.390625 C -810.199219 1155.550781 -469.394531 1395.890625 -139.800781 1628.339844 C 184 1856.691406 489.839844 2072.398438 623.367188 1976.578125 C 730.433594 1899.75 712.082031 1625.039062 567.265625 1136.769531 C 430.484375 675.628906 410.253906 420.988281 505.417969 358.289062 C 629.292969 276.691406 925.683594 523.320312 1239.488281 784.460938 C 1568.878906 1058.558594 1909.5 1342.019531 2059.949219 1247.921875 C 2169.710938 1179.300781 2167.019531 917.609375 2051.710938 447.878906 C 1948.328125 26.699219 1956.820312 -222.101562 2077.648438 -312.738281 C 2258.878906 -448.671875 2665.871094 -213.261719 3096.761719 35.980469 C 3471.800781 252.910156 3856.921875 475.628906 4124.878906 475.660156 C 4198.140625 475.671875 4262.609375 459.03125 4315.769531 421.058594 C 4492.75 294.660156 4522.378906 -53.949219 4406.328125 -644.699219 L 4410.019531 -645.429688 C 4526.371094 -53.078125 4496.261719 296.769531 4317.949219 424.109375 C 4264.171875 462.519531 4198.960938 479.359375 4125.011719 479.359375 C 3855.808594 479.371094 3470.351562 256.398438 3094.878906 39.21875 C 2665.101562 -209.371094 2259.160156 -444.191406 2079.910156 -309.738281 C 1960.398438 -220.101562 1952.371094 27.421875 2055.351562 446.988281 C 2171.089844 918.488281 2173.25 1181.511719 2061.941406 1251.101562 C 1909.199219 1346.578125 1567.511719 1062.289062 1237.089844 787.339844 C 924.390625 527.128906 629.027344 281.359375 507.480469 361.421875 C 413.878906 423.089844 434.613281 676.359375 570.859375 1135.710938 C 716.1875 1625.699219 734.078125 1901.738281 625.550781 1979.628906 C 602.652344 1996.058594 574.855469 2003.550781 542.941406 2003.558594 "/>
<path fill-rule="nonzero" fill="rgb(73.233032%, 80.464172%, 92.892456%)" fill-opacity="1" d="M 517.933594 2035.671875 C 358.441406 2035.691406 101.808594 1861.320312 -167.117188 1678.609375 C -497.328125 1454.261719 -838.78125 1222.28125 -998.484375 1326.738281 C -1100.839844 1393.691406 -1119.859375 1590.929688 -1056.628906 1929.71875 L -1060.308594 1930.398438 C -1123.851562 1589.960938 -1104.300781 1391.480469 -1000.539062 1323.601562 C -838.742188 1217.769531 -496.234375 1450.46875 -165.011719 1675.5 C 160.613281 1896.730469 468.175781 2105.671875 604.296875 2006.808594 C 712.613281 1928.121094 697.804688 1657.429688 559.027344 1179.261719 C 427.835938 727.210938 410.945312 476.25 507.402344 412.019531 C 633.652344 327.96875 930.863281 567.511719 1245.539062 821.128906 C 1575.789062 1087.300781 1917.289062 1362.511719 2070.800781 1265.691406 C 2182.199219 1195.421875 2183.191406 937.21875 2073.808594 476.351562 C 1976 64.199219 1987.71875 -181.121094 2109.640625 -273.640625 C 2294.328125 -413.800781 2704.578125 -186.75 3138.941406 53.628906 C 3512.140625 260.160156 3895.210938 472.148438 4166.328125 472.171875 C 4245 472.171875 4314.230469 454.320312 4371.070312 413.320312 C 4550.011719 284.238281 4584.46875 -59.828125 4476.449219 -638.550781 L 4480.128906 -639.238281 C 4588.449219 -58.941406 4553.5 286.351562 4373.269531 416.359375 C 4315.789062 457.820312 4245.820312 475.859375 4166.449219 475.871094 C 3894.160156 475.890625 3510.738281 263.671875 3137.121094 56.910156 C 2703.871094 -182.859375 2294.648438 -409.339844 2111.910156 -270.660156 C 1991.300781 -179.128906 1980.03125 64.941406 2077.460938 475.480469 C 2187.25 938.109375 2185.730469 1197.628906 2072.800781 1268.859375 C 2050.761719 1282.761719 2024.96875 1289.171875 1996.011719 1289.179688 C 1820.300781 1289.191406 1527.589844 1053.269531 1243.191406 824.050781 C 929.613281 571.320312 633.433594 332.589844 509.480469 415.140625 C 414.566406 478.339844 431.949219 727.941406 562.628906 1178.210938 C 701.902344 1658.089844 716.253906 1930.109375 606.5 2009.839844 C 582.039062 2027.609375 552.222656 2035.671875 517.933594 2035.671875 "/>
<path fill-rule="nonzero" fill="rgb(45.986938%, 56.954956%, 82.354736%)" fill-opacity="1" d="M 491.859375 2067.800781 C 330.070312 2067.808594 74.40625 1900.671875 -193.375 1725.621094 C -525.398438 1508.570312 -868.730469 1284.148438 -1031.699219 1391.679688 C -1135.390625 1460.109375 -1157.28125 1654.898438 -1098.601562 1987.191406 L -1102.289062 1987.839844 C -1161.261719 1653.921875 -1138.839844 1457.890625 -1033.761719 1388.550781 C -868.742188 1279.660156 -524.355469 1504.769531 -191.324219 1722.480469 C 136.320312 1936.660156 445.792969 2138.96875 584.609375 2036.878906 C 694.144531 1956.328125 682.84375 1689.578125 550.058594 1221.398438 C 424.378906 778.289062 410.796875 530.910156 508.527344 465.121094 C 637.183594 378.539062 935.382812 611.058594 1251.089844 857.238281 C 1582.371094 1115.570312 1924.960938 1382.691406 2081.578125 1282.988281 C 2194.628906 1211.050781 2199.269531 956.269531 2095.769531 504.109375 C 2003.480469 100.898438 2018.378906 -140.988281 2141.339844 -235.398438 C 2329.570312 -379.898438 2743.359375 -161.171875 3181.441406 70.429688 C 3552.71875 266.699219 3933.710938 468.078125 4207.871094 468.101562 C 4292.359375 468.109375 4366.679688 448.980469 4427.480469 404.691406 C 4608.320312 272.929688 4647.578125 -66.671875 4547.488281 -633.539062 L 4551.179688 -634.191406 C 4651.539062 -65.769531 4611.800781 275.039062 4429.691406 407.71875 C 4169.710938 597.109375 3666.429688 331.039062 3179.691406 73.738281 C 2742.699219 -157.269531 2329.949219 -375.460938 2143.621094 -232.421875 C 2021.949219 -139.011719 2007.488281 101.640625 2099.421875 503.28125 C 2203.320312 957.171875 2198.140625 1213.261719 2083.589844 1286.148438 C 2060.050781 1301.140625 2032.421875 1308.019531 2001.390625 1308.019531 C 1823.078125 1308.050781 1531.839844 1080.921875 1248.78125 860.199219 C 934.179688 614.871094 637.011719 383.140625 510.621094 468.238281 C 414.40625 533 428.484375 779.019531 553.667969 1220.378906 C 686.929688 1690.25 697.777344 1958.308594 586.832031 2039.898438 C 560.695312 2059.121094 528.699219 2067.789062 491.859375 2067.800781 "/>
<path fill-rule="nonzero" fill="rgb(67.126465%, 73.905945%, 90.057373%)" fill-opacity="1" d="M 464.703125 2099.878906 C 300.652344 2099.878906 45.953125 1939.890625 -220.660156 1772.421875 C -554.699219 1562.601562 -900.105469 1345.648438 -1066.449219 1456.359375 C -1171.480469 1526.289062 -1196.21875 1718.691406 -1142.058594 2044.578125 L -1145.761719 2045.191406 C -1200.179688 1717.699219 -1174.921875 1524.070312 -1068.53125 1453.238281 C -900.171875 1341.171875 -553.714844 1558.789062 -218.667969 1769.238281 C 111.195312 1976.441406 422.757812 2172.148438 564.320312 2066.75 C 675.042969 1984.308594 667.195312 1721.421875 540.324219 1263.050781 C 420.121094 828.769531 409.808594 584.910156 508.796875 517.558594 C 639.933594 428.359375 939.242188 653.949219 1256.140625 892.789062 C 1588.621094 1143.390625 1932.410156 1402.539062 2092.289062 1299.859375 C 2206.980469 1226.21875 2215.25 974.769531 2117.578125 531.148438 C 2030.738281 136.75 2048.78125 -101.761719 2172.730469 -198.019531 C 2364.589844 -347.019531 2782.160156 -136.511719 3224.261719 86.351562 C 3593.539062 272.511719 3972.308594 463.441406 4249.359375 463.449219 C 4340.101562 463.449219 4419.910156 442.96875 4484.929688 395.140625 C 4667.621094 260.738281 4711.578125 -74.480469 4619.320312 -629.671875 L 4623.019531 -630.289062 C 4715.539062 -73.570312 4671.089844 262.839844 4487.148438 398.160156 C 4221.75 593.410156 3713.800781 337.328125 3222.570312 89.699219 C 2781.558594 -132.621094 2365.019531 -342.589844 2175.03125 -195.050781 C 2052.339844 -99.78125 2034.738281 137.511719 2121.238281 530.339844 C 2219.300781 975.679688 2210.488281 1228.429688 2094.320312 1303.019531 C 2069.148438 1319.179688 2039.570312 1326.558594 2006.320312 1326.558594 C 1825.421875 1326.570312 1535.601562 1108.128906 1253.878906 895.789062 C 938.085938 657.769531 639.816406 432.949219 510.90625 520.660156 C 413.414062 587 424.214844 829.511719 543.9375 1262.058594 C 671.273438 1722.089844 678.671875 1986.289062 566.558594 2069.761719 C 538.628906 2090.550781 504.308594 2099.871094 464.703125 2099.878906 "/>
<path fill-rule="nonzero" fill="rgb(58.155823%, 86.08551%, 88.017273%)" fill-opacity="1" d="M 436.441406 2132.011719 C 270.152344 2132.011719 16.429688 1979.070312 -249.023438 1819.070312 C -585.261719 1616.398438 -932.953125 1406.839844 -1102.75 1520.839844 C -1209.109375 1592.25 -1236.660156 1782.320312 -1186.980469 2101.898438 L -1190.679688 2102.480469 C -1240.609375 1781.300781 -1212.53125 1590.03125 -1104.839844 1517.730469 C -933.074219 1402.371094 -584.332031 1612.578125 -247.085938 1815.859375 C 85.195312 2016.140625 399.046875 2205.320312 543.421875 2096.5 C 655.296875 2012.179688 650.855469 1753.101562 529.847656 1304.460938 C 415.050781 878.828125 407.972656 638.410156 508.210938 569.449219 C 641.851562 477.5 942.5 696.261719 1260.789062 927.871094 C 1594.648438 1170.808594 1939.851562 1422.011719 2103.03125 1316.300781 C 2219.339844 1240.941406 2231.191406 992.761719 2139.289062 557.578125 C 2057.828125 171.839844 2078.941406 -63.359375 2203.839844 -161.460938 C 2399.449219 -315.089844 2821.050781 -112.78125 3267.421875 101.398438 C 3634.558594 277.558594 4011.019531 458.171875 4290.789062 458.199219 C 4388.261719 458.210938 4473.941406 436.300781 4543.480469 384.648438 C 4727.988281 247.609375 4776.601562 -83.300781 4692.089844 -626.988281 L 4695.789062 -627.558594 C 4780.539062 -82.371094 4731.449219 249.71875 4545.710938 387.660156 C 4274.75 588.898438 3761.828125 342.789062 3265.800781 104.78125 C 2820.519531 -108.878906 2399.910156 -310.699219 2206.160156 -158.511719 C 2082.488281 -61.378906 2061.820312 172.601562 2142.960938 556.800781 C 2235.21875 993.679688 2222.828125 1243.140625 2105.070312 1319.449219 C 2078.179688 1336.871094 2046.480469 1344.789062 2010.851562 1344.800781 C 1827.390625 1344.808594 1539 1134.941406 1258.578125 930.898438 C 941.398438 700.101562 641.8125 482.089844 510.335938 572.539062 C 411.570312 640.488281 419.136719 879.578125 533.46875 1303.480469 C 654.917969 1753.769531 658.914062 2014.148438 545.675781 2099.5 C 515.84375 2121.988281 479 2132.011719 436.441406 2132.011719 "/>
<path fill-rule="nonzero" fill="rgb(55.464172%, 78.118896%, 86.51886%)" fill-opacity="1" d="M 406.976562 2164.148438 C 238.492188 2164.160156 -14.226562 2018.191406 -278.488281 1865.558594 C -617.101562 1670 -967.25 1467.769531 -1140.589844 1585.140625 C -1248.25 1658.050781 -1278.589844 1845.828125 -1233.339844 2159.21875 L -1237.050781 2159.761719 C -1282.53125 1844.800781 -1251.660156 1655.828125 -1142.691406 1582.039062 C -967.398438 1463.339844 -616.222656 1666.171875 -276.613281 1862.320312 C 58.292969 2055.738281 374.628906 2238.449219 521.871094 2126.078125 C 634.867188 2039.851562 633.789062 1784.488281 518.574219 1345.398438 C 409.136719 928.320312 405.257812 691.269531 506.714844 620.699219 C 642.953125 525.941406 945.058594 737.941406 1264.910156 962.398438 C 1600.339844 1197.789062 1947.191406 1441.21875 2113.710938 1332.328125 C 2231.628906 1255.230469 2247.058594 1010.230469 2160.871094 583.339844 C 2084.710938 206.179688 2108.839844 -25.730469 2234.640625 -125.640625 C 2434.039062 -284 2859.949219 -89.871094 3310.871094 115.660156 C 3811.03125 343.628906 4328.230469 579.371094 4603.140625 373.269531 C 4789.429688 233.628906 4842.621094 -93.050781 4765.75 -625.429688 L 4769.460938 -625.960938 C 4846.550781 -92.109375 4792.878906 235.730469 4605.398438 376.269531 C 4530.359375 432.519531 4437.53125 456.148438 4332.128906 456.160156 C 4048.859375 456.160156 3674.558594 285.550781 3309.308594 119.070312 C 2859.460938 -85.96875 2434.570312 -279.640625 2236.96875 -122.699219 C 2112.378906 -23.761719 2088.691406 206.949219 2164.539062 582.601562 C 2251.070312 1011.160156 2235.121094 1257.429688 2115.769531 1335.460938 C 2087.039062 1354.25 2053.070312 1362.75 2014.878906 1362.75 C 1828.890625 1362.78125 1541.898438 1161.359375 1262.75 965.46875 C 944.003906 741.78125 642.925781 530.519531 508.855469 623.769531 C 408.84375 693.339844 413.210938 929.070312 522.203125 1344.441406 C 637.84375 1785.171875 638.480469 2041.820312 524.148438 2129.058594 C 492.273438 2153.378906 452.726562 2164.148438 406.976562 2164.148438 "/>
<path fill-rule="nonzero" fill="rgb(45.303345%, 56.570435%, 82.173157%)" fill-opacity="1" d="M -1284.949219 2216.988281 C -1326.019531 1908.171875 -1292.398438 1721.449219 -1182.171875 1646.191406 C -1003.300781 1524.039062 -649.457031 1719.550781 -307.269531 1908.628906 C 30.480469 2095.261719 349.5 2271.53125 499.703125 2155.511719 C 613.777344 2067.378906 616.007812 1815.679688 506.519531 1386.03125 C 402.390625 977.390625 401.671875 743.648438 504.332031 671.441406 C 643.214844 573.761719 946.960938 779.070312 1268.550781 996.429688 C 1605.75 1224.351562 1954.421875 1460.011719 2124.390625 1347.878906 C 2243.921875 1269.011719 2262.878906 1027.121094 2182.351562 608.378906 C 2111.429688 239.660156 2138.519531 10.988281 2265.160156 -90.679688 C 2468.488281 -253.921875 2898.960938 -67.921875 3354.71875 129.011719 C 3860.320312 347.460938 4383.109375 573.351562 4663.988281 360.910156 C 4852.011719 218.691406 4909.699219 -103.808594 4840.378906 -625.03125 L 4844.101562 -625.53125 C 4913.609375 -102.851562 4855.441406 220.800781 4666.261719 363.898438 C 4383.640625 577.671875 3859.808594 351.328125 3353.230469 132.449219 C 2898.539062 -64.011719 2469.070312 -249.578125 2267.511719 -87.761719 C 2142.050781 12.960938 2115.398438 240.441406 2186.03125 607.671875 C 2266.878906 1028.070312 2247.398438 1271.21875 2126.460938 1351.011719 C 2095.75 1371.269531 2059.359375 1380.378906 2018.410156 1380.390625 C 1829.910156 1380.398438 1544.308594 1187.339844 1266.449219 999.539062 C 945.96875 782.921875 643.257812 578.308594 506.488281 674.511719 C 405.253906 745.710938 406.453125 978.148438 510.152344 1385.101562 C 620.050781 1816.371094 617.382812 2069.339844 501.996094 2158.46875 C 467.953125 2184.78125 425.484375 2196.328125 376.296875 2196.339844 C 205.652344 2196.351562 -46.042969 2057.261719 -309.085938 1911.921875 C -650.277344 1723.378906 -1003.070312 1528.421875 -1180.058594 1649.28125 C -1289.011719 1723.671875 -1322.101562 1909.210938 -1281.230469 2216.488281 L -1284.949219 2216.988281 "/>
<path fill-rule="nonzero" fill="rgb(65.020752%, 65.600586%, 85.952759%)" fill-opacity="1" d="M -1334.328125 2274.238281 C -1371.039062 1971.449219 -1334.699219 1786.949219 -1223.230469 1710.210938 C -1040.640625 1584.53125 -683.949219 1772.78125 -338.996094 1954.839844 C 1.824219 2134.730469 323.734375 2304.648438 476.957031 2184.820312 C 592.070312 2094.800781 597.558594 1846.710938 493.734375 1426.351562 C 394.847656 1025.988281 397.257812 795.46875 501.09375 721.621094 C 642.6875 620.929688 948.25 819.621094 1271.761719 1029.988281 C 1610.890625 1250.511719 1961.578125 1478.539062 2135.089844 1363.03125 C 2256.210938 1282.398438 2278.671875 1043.550781 2203.75 632.839844 C 2138 272.441406 2167.988281 46.988281 2295.429688 -56.421875 C 2502.738281 -224.628906 2938.058594 -46.761719 3398.941406 141.578125 C 3758.761719 288.621094 4127.28125 439.191406 4414.039062 439.210938 C 4534.800781 439.230469 4641 412.539062 4726.050781 347.648438 C 4915.75 202.910156 4977.890625 -115.488281 4916.019531 -625.761719 L 4919.738281 -626.210938 C 4981.789062 -114.511719 4919.171875 205.019531 4728.320312 350.628906 C 4642.589844 416.039062 4535.558594 442.941406 4414.089844 442.949219 C 4126.480469 442.96875 3757.71875 292.25 3397.511719 145.050781 C 2937.699219 -42.851562 2503.390625 -220.320312 2297.800781 -53.511719 C 2171.511719 48.960938 2141.960938 273.238281 2207.441406 632.171875 C 2282.648438 1044.519531 2259.671875 1284.601562 2137.171875 1366.148438 C 1961.601562 1483.03125 1609.871094 1254.320312 1269.71875 1033.128906 C 947.304688 823.480469 642.773438 625.460938 503.269531 724.679688 C 400.828125 797.53125 398.902344 1026.75 497.375 1425.449219 C 601.59375 1847.390625 595.667969 2096.75 479.269531 2187.769531 C 442.90625 2216.199219 397.296875 2228.609375 344.414062 2228.609375 C 171.671875 2228.628906 -78.960938 2096.328125 -340.746094 1958.160156 C -684.710938 1776.621094 -1040.390625 1588.910156 -1221.101562 1713.300781 C -1331.308594 1789.171875 -1367.128906 1972.511719 -1330.601562 2273.789062 L -1334.328125 2274.238281 "/>
<path fill-rule="nonzero" fill="rgb(39.530945%, 50.912476%, 79.18396%)" fill-opacity="1" d="M -1385.238281 2331.578125 C -1417.640625 2034.699219 -1378.609375 1852.359375 -1265.910156 1774.160156 C -1079.519531 1644.851562 -719.773438 1825.878906 -371.867188 2000.960938 C -27.777344 2174.140625 297.21875 2337.691406 453.546875 2213.96875 C 569.652344 2122.078125 578.351562 1877.53125 480.128906 1466.339844 C 386.433594 1074.171875 391.925781 846.828125 496.914062 771.328125 C 641.273438 667.519531 948.847656 859.660156 1274.480469 1063.089844 C 1615.75 1276.289062 1968.640625 1496.730469 2145.769531 1377.75 C 2268.460938 1295.339844 2294.371094 1059.46875 2224.988281 656.648438 C 2164.339844 304.449219 2197.179688 82.148438 2325.378906 -22.941406 C 2536.839844 -196.289062 2977.28125 -26.480469 3443.570312 153.289062 C 3800.570312 290.921875 4165.988281 431.78125 4454.570312 431.789062 C 4584.261719 431.800781 4698.390625 403.359375 4789.328125 333.398438 C 4980.660156 186.191406 5047.171875 -128.148438 4992.648438 -627.601562 L 4996.378906 -628.011719 C 5051.050781 -127.148438 4984.070312 188.300781 4791.609375 336.371094 C 4699.980469 406.871094 4585.019531 435.519531 4454.601562 435.53125 C 4165.238281 435.550781 3799.558594 294.550781 3442.21875 156.78125 C 2976.96875 -22.578125 2537.519531 -192 2327.761719 -20.039062 C 2200.691406 84.121094 2168.28125 305.261719 2228.679688 656.019531 C 2298.339844 1060.441406 2271.898438 1297.539062 2147.851562 1380.871094 C 2112.789062 1404.421875 2070.988281 1414.890625 2023.921875 1414.898438 C 1830.558594 1414.921875 1547.769531 1238.238281 1272.488281 1066.269531 C 947.953125 863.53125 641.414062 672.03125 499.105469 774.371094 C 395.488281 848.890625 390.472656 1074.949219 483.773438 1465.46875 C 582.371094 1878.21875 573.242188 2124.019531 455.871094 2216.921875 C 417.035156 2247.648438 368.046875 2260.949219 311.183594 2260.960938 C 136.402344 2260.980469 -113.105469 2135.390625 -373.554688 2004.308594 C -720.480469 1829.71875 -1079.21875 1649.179688 -1263.769531 1777.238281 C -1375.238281 1854.589844 -1413.75 2035.789062 -1381.511719 2331.171875 L -1385.238281 2331.578125 "/>
<path fill-rule="nonzero" fill="rgb(71.177673%, 72.47467%, 86.253357%)" fill-opacity="1" d="M -1437.71875 2388.929688 C -1465.871094 2097.890625 -1424.179688 1917.691406 -1310.269531 1838.03125 C -1119.988281 1704.960938 -756.964844 1878.851562 -405.894531 2047 C -58.300781 2213.5 270.019531 2370.761719 429.519531 2243 C 546.582031 2149.238281 558.425781 1908.179688 465.726562 1506.058594 C 377.175781 1121.949219 385.710938 897.730469 491.824219 820.570312 C 639.019531 713.539062 948.769531 899.179688 1276.699219 1095.730469 C 1620.300781 1301.671875 1975.601562 1514.628906 2156.46875 1392.050781 C 2280.71875 1307.851562 2310.070312 1074.878906 2246.191406 679.839844 C 2190.558594 335.71875 2226.179688 116.550781 2355.089844 9.820312 C 2570.761719 -168.761719 3016.589844 -7.039062 3488.589844 164.160156 C 4012.429688 354.171875 4554.109375 550.640625 4853.878906 318.160156 C 5046.828125 168.539062 5117.640625 -141.828125 5070.359375 -630.671875 L 5074.089844 -631.039062 C 5121.5 -140.808594 5050.21875 170.648438 4856.179688 321.128906 C 4758.21875 397.101562 4634.710938 427.589844 4494.679688 427.589844 C 4203.851562 427.609375 3841.550781 296.171875 3487.320312 167.691406 C 3016.351562 -3.140625 2571.511719 -164.488281 2357.480469 12.710938 C 2229.679688 118.519531 2194.488281 336.539062 2249.898438 679.238281 C 2314.03125 1075.871094 2284.148438 1310.050781 2158.570312 1395.148438 C 1975.738281 1519.070312 1619.390625 1305.488281 1274.769531 1098.949219 C 947.929688 903.058594 639.214844 718.03125 494.03125 823.601562 C 389.265625 899.78125 381.203125 1122.738281 469.382812 1505.21875 C 562.4375 1908.878906 550.164062 2151.171875 431.863281 2245.929688 C 270.53125 2375.148438 -58.820312 2217.398438 -407.515625 2050.390625 C -757.617188 1882.699219 -1119.628906 1709.300781 -1308.121094 1841.101562 C -1420.820312 1919.921875 -1461.988281 2099 -1433.988281 2388.570312 L -1437.71875 2388.929688 "/>
<path fill-rule="nonzero" fill="rgb(48.553467%, 74.435425%, 88.365173%)" fill-opacity="1" d="M -1491.738281 2446.398438 C -1515.679688 2161.089844 -1471.371094 1982.96875 -1356.261719 1901.878906 C -1161.980469 1765 -795.476562 1931.738281 -441.046875 2093 C -89.722656 2252.828125 242.113281 2403.800781 404.863281 2271.898438 C 522.832031 2176.300781 537.765625 1938.679688 450.523438 1545.46875 C 367.054688 1169.320312 378.601562 948.160156 485.8125 869.328125 C 635.917969 758.96875 948.046875 938.179688 1278.488281 1127.921875 C 1624.628906 1326.660156 1982.550781 1532.160156 2167.230469 1405.898438 C 2293.03125 1319.910156 2325.769531 1089.789062 2267.328125 702.398438 C 2216.628906 366.230469 2254.96875 150.160156 2384.53125 41.859375 C 2604.550781 -142.050781 3056.058594 11.570312 3534.070312 174.21875 C 3884.558594 293.480469 4242.96875 415.421875 4534.210938 415.421875 C 4683.851562 415.429688 4815.730469 383.25 4919.75 301.96875 C 5114.238281 150.011719 5189.269531 -156.421875 5149.140625 -634.808594 L 5152.878906 -635.121094 C 5193.128906 -155.371094 5117.621094 152.121094 4922.058594 304.929688 C 4817.320312 386.761719 4684.601562 419.160156 4534.230469 419.171875 C 4242.300781 419.191406 3883.679688 297.140625 3532.859375 177.769531 C 3055.871094 15.46875 2605.328125 -137.820312 2386.941406 44.730469 C 2258.46875 152.128906 2220.558594 367.070312 2271.039062 701.839844 C 2329.71875 1090.789062 2296.449219 1322.109375 2169.351562 1409 C 2129.289062 1436.390625 2081.261719 1448.398438 2027.128906 1448.398438 C 1829.121094 1448.421875 1549.238281 1287.699219 1276.621094 1131.171875 C 947.265625 942.058594 636.167969 763.441406 488.035156 872.351562 C 382.144531 950.210938 371.074219 1170.121094 454.183594 1544.660156 C 541.765625 1939.390625 526.40625 2178.21875 407.226562 2274.820312 C 242.664062 2408.179688 -90.1875 2256.738281 -442.597656 2096.410156 C -796.070312 1935.589844 -1161.570312 1769.289062 -1354.101562 1904.949219 C -1468.019531 1985.210938 -1511.820312 2162.210938 -1488.011719 2446.089844 L -1491.738281 2446.398438 "/>
<path fill-rule="nonzero" fill="rgb(64.276123%, 65.219116%, 85.798645%)" fill-opacity="1" d="M -1547.410156 2503.910156 C -1567.179688 2224.238281 -1520.269531 2048.179688 -1404 1965.679688 C -1205.578125 1824.898438 -835.40625 1984.539062 -477.421875 2138.929688 C -122.140625 2292.160156 213.429688 2436.890625 379.527344 2300.710938 C 498.359375 2203.28125 516.335938 1969.058594 434.480469 1584.648438 C 356.050781 1216.328125 370.5625 998.148438 478.851562 917.660156 C 631.957031 803.871094 946.632812 976.691406 1279.789062 1159.660156 C 1628.648438 1351.261719 1989.371094 1549.390625 2178.03125 1419.320312 C 2305.351562 1331.53125 2341.449219 1104.199219 2288.421875 724.339844 C 2242.578125 396.011719 2283.570312 183.019531 2413.75 73.210938 C 2638.210938 -116.148438 3095.671875 29.390625 3579.96875 183.460938 C 3926.691406 293.769531 4281.078125 406.488281 4573.050781 406.511719 C 4733.820312 406.519531 4875.628906 372.351562 4986.898438 284.789062 C 5182.921875 130.550781 5262.121094 -172.011719 5229.019531 -640.171875 L 5232.761719 -640.429688 C 5265.960938 -170.941406 5186.289062 132.671875 4989.21875 287.738281 C 4848.191406 398.710938 4644.050781 433.390625 4365.148438 393.769531 C 4118.589844 358.761719 3844.191406 271.460938 3578.839844 187.039062 C 3095.539062 33.28125 2639.050781 -111.949219 2416.171875 76.078125 C 2287.058594 184.988281 2246.480469 396.871094 2292.128906 723.820312 C 2345.378906 1105.230469 2308.75 1333.738281 2180.148438 1422.410156 C 2137.328125 1451.929688 2085.820312 1464.789062 2027.789062 1464.789062 C 1827.570312 1464.808594 1549.21875 1311.921875 1277.980469 1162.949219 C 945.914062 980.578125 632.265625 808.308594 481.089844 920.671875 C 374.101562 1000.199219 360.054688 1217.128906 438.148438 1583.871094 C 520.320312 1969.78125 501.925781 2205.210938 381.90625 2303.609375 C 334.601562 2342.378906 273.855469 2358.710938 203.089844 2358.71875 C 22.730469 2358.730469 -222.96875 2252.75 -478.902344 2142.371094 C -835.941406 1988.390625 -1205.140625 1829.171875 -1401.828125 1968.738281 C -1516.949219 2050.421875 -1563.339844 2225.390625 -1543.671875 2503.640625 L -1547.410156 2503.910156 "/>
<path fill-rule="nonzero" fill="rgb(63.066101%, 80.198669%, 86.103821%)" fill-opacity="1" d="M -1604.660156 2561.601562 C -1620.328125 2287.480469 -1570.859375 2113.441406 -1453.429688 2029.550781 C -1250.769531 1884.78125 -876.691406 2037.339844 -514.933594 2184.871094 C -155.441406 2331.488281 184.101562 2469.96875 353.628906 2329.398438 C 473.277344 2230.191406 494.230469 1999.320312 417.683594 1623.601562 C 344.21875 1262.980469 361.652344 1047.761719 470.980469 965.609375 C 627.144531 848.269531 944.566406 1014.761719 1280.628906 1191.011719 C 1632.410156 1375.511719 1996.191406 1566.289062 2188.871094 1432.328125 C 2317.691406 1342.75 2357.121094 1118.160156 2309.421875 745.699219 C 2268.351562 425.058594 2311.949219 215.121094 2442.699219 103.859375 C 2671.761719 -91.039062 3135.441406 46.378906 3626.359375 191.871094 C 4171.378906 353.398438 4734.960938 520.421875 5055.421875 266.601562 C 5252.929688 110.160156 5336.210938 -188.570312 5310.03125 -646.671875 L 5313.769531 -646.878906 C 5340.03125 -187.480469 5256.28125 112.289062 5057.738281 269.539062 C 4913.570312 383.738281 4705.859375 422.519531 4422.710938 388.058594 C 4172.421875 357.621094 3894.28125 275.191406 3625.289062 195.46875 C 3135.390625 50.269531 2672.640625 -86.871094 2445.128906 106.71875 C 2315.421875 217.089844 2272.25 425.941406 2313.140625 745.21875 C 2361.03125 1119.199219 2321.089844 1344.960938 2191 1435.410156 C 2145.230469 1467.230469 2090.011719 1480.980469 2027.761719 1480.980469 C 1825.441406 1480.988281 1548.660156 1335.820312 1278.878906 1194.328125 C 943.902344 1018.648438 627.503906 852.710938 473.230469 968.609375 C 365.179688 1049.800781 348.214844 1263.800781 421.355469 1622.851562 C 498.207031 2000.050781 476.832031 2232.121094 356.023438 2332.289062 C 305.503906 2374.171875 240.222656 2391.621094 164.074219 2391.621094 C -17.925781 2391.628906 -262.152344 2292.019531 -516.347656 2188.351562 C -877.167969 2041.191406 -1250.269531 1889.019531 -1451.25 2032.601562 C -1567.550781 2115.679688 -1616.5 2288.648438 -1600.910156 2561.390625 L -1604.660156 2561.601562 "/>
<path fill-rule="nonzero" fill="rgb(62.287903%, 70.323181%, 88.394165%)" fill-opacity="1" d="M -1663.578125 2619.449219 C -1675.191406 2350.75 -1623.191406 2178.699219 -1504.609375 2093.449219 C -1297.570312 1944.601562 -919.386719 2090.089844 -553.648438 2230.808594 C -189.730469 2370.808594 153.992188 2503.058594 327.046875 2357.980469 C 447.46875 2257.03125 471.34375 2029.460938 400.035156 1662.269531 C 331.484375 1309.289062 351.792969 1096.96875 462.125 1013.179688 C 621.417969 892.210938 941.796875 1052.378906 1280.980469 1221.960938 C 1635.921875 1399.421875 2002.949219 1582.929688 2199.800781 1444.929688 C 2330.109375 1353.570312 2372.839844 1131.648438 2330.398438 766.46875 C 2294.03125 453.410156 2340.160156 246.46875 2471.441406 133.851562 C 2705.199219 -66.691406 3175.410156 62.601562 3673.238281 199.480469 C 4011.148438 292.390625 4356.171875 387.230469 4648.148438 387.238281 C 4833.78125 387.25 4997.941406 348.929688 5125.339844 247.410156 C 5324.308594 88.859375 5411.621094 -206.109375 5392.25 -654.328125 L 5396 -654.488281 C 5415.421875 -204.988281 5327.648438 90.988281 5127.679688 250.339844 C 5010.03125 344.101562 4851.570312 390.351562 4646.269531 390.359375 C 4594.289062 390.359375 4539.351562 387.398438 4481.269531 381.488281 C 4227.070312 355.640625 3945.011719 278.089844 3672.25 203.089844 C 3175.410156 66.488281 2706.140625 -62.539062 2473.878906 136.691406 C 2343.621094 248.441406 2297.910156 454.308594 2334.121094 766.039062 C 2376.730469 1132.710938 2333.5 1355.78125 2201.949219 1448 C 2153.019531 1482.300781 2093.789062 1496.988281 2027.019531 1497 C 1822.699219 1497.011719 1547.570312 1359.441406 1279.300781 1225.308594 C 941.195312 1056.269531 621.828125 896.601562 464.390625 1016.171875 C 355.3125 1099.011719 335.464844 1310.109375 403.714844 1661.550781 C 475.308594 2030.210938 451.015625 2258.949219 329.457031 2360.859375 C 275.507812 2406.082031 205.328125 2424.699219 123.386719 2424.710938 C -60.101562 2424.71875 -302.699219 2331.371094 -554.996094 2234.300781 C -919.804688 2093.949219 -1297.03125 1948.820312 -1502.421875 2096.5 C -1619.890625 2180.949219 -1671.378906 2351.960938 -1659.839844 2619.28125 L -1663.578125 2619.449219 "/>
<path fill-rule="nonzero" fill="rgb(48.100281%, 59.591675%, 83.711243%)" fill-opacity="1" d="M -1724.171875 2677.429688 C -1731.78125 2414.089844 -1677.289062 2243.980469 -1557.578125 2157.398438 C -1346.050781 2004.398438 -963.535156 2142.839844 -593.609375 2276.730469 C -225.011719 2410.128906 123.140625 2536.140625 299.832031 2386.441406 C 420.980469 2283.789062 447.722656 2059.488281 381.582031 1700.71875 C 317.890625 1355.238281 341.039062 1145.78125 452.34375 1060.359375 C 614.882812 935.628906 938.390625 1089.539062 1280.890625 1252.46875 C 1639.171875 1422.921875 2009.671875 1599.191406 2210.789062 1457.058594 C 2342.570312 1363.941406 2388.539062 1144.640625 2351.328125 786.628906 C 2319.558594 481.019531 2368.171875 277.078125 2499.941406 163.171875 C 2738.519531 -43.089844 3215.570312 78.050781 3720.601562 206.28125 C 4053.351562 290.78125 4392.898438 376.980469 4684.019531 376.988281 C 4883.558594 377 5060.300781 336.519531 5196.671875 227.25 C 5397.078125 66.679688 5488.339844 -224.570312 5475.660156 -663.128906 L 5479.410156 -663.230469 C 5492.121094 -223.421875 5400.410156 68.820312 5199.011719 230.179688 C 5048.21875 351 4832.910156 398.058594 4540.800781 374.070312 C 4282.550781 352.839844 3996.398438 280.191406 3719.679688 209.921875 C 3215.609375 81.921875 2739.488281 -38.96875 2502.390625 166.011719 C 2371.621094 279.058594 2323.429688 481.941406 2355.058594 786.238281 C 2392.429688 1145.71875 2345.941406 1366.140625 2212.949219 1460.121094 C 2160.648438 1497.078125 2097.121094 1512.761719 2025.511719 1512.769531 C 1819.308594 1512.78125 1545.949219 1382.71875 1279.28125 1255.859375 C 937.851562 1093.429688 615.347656 940.011719 454.625 1063.339844 C 344.546875 1147.808594 321.859375 1356.078125 385.269531 1700.039062 C 451.675781 2060.25 424.519531 2285.699219 302.257812 2389.300781 C 244.640625 2438.121094 169.171875 2457.96875 80.972656 2457.980469 C -103.84375 2457.988281 -344.65625 2370.820312 -594.886719 2280.25 C -963.890625 2146.699219 -1345.460938 2008.601562 -1555.378906 2160.441406 C -1674 2246.238281 -1727.988281 2415.308594 -1720.421875 2677.328125 L -1724.171875 2677.429688 "/>
<path fill-rule="nonzero" fill="rgb(51.922607%, 71.202087%, 81.007385%)" fill-opacity="1" d="M -1786.398438 2735.640625 C -1790.058594 2477.539062 -1733.121094 2309.351562 -1612.308594 2221.46875 C -1396.171875 2064.25 -1009.121094 2195.648438 -634.808594 2322.71875 C -261.277344 2449.53125 91.539062 2569.300781 271.960938 2414.859375 C 393.800781 2310.550781 423.347656 2089.480469 362.289062 1739 C 303.394531 1400.910156 329.332031 1194.261719 441.578125 1107.238281 C 607.445312 978.660156 934.292969 1126.320312 1280.328125 1282.648438 C 1642.191406 1446.121094 2016.351562 1615.179688 2221.890625 1468.808594 C 2355.121094 1373.949219 2404.300781 1157.21875 2372.230469 806.261719 C 2344.980469 507.929688 2396.011719 306.949219 2528.238281 191.828125 C 2771.808594 -20.238281 3255.949219 92.699219 3768.53125 212.269531 C 4095.5 288.539062 4428.941406 366.300781 4718.488281 366.320312 C 4933.03125 366.328125 5123.429688 323.660156 5269.460938 206.078125 C 5471.28125 43.570312 5566.429688 -244.011719 5560.328125 -673.101562 L 5564.078125 -673.148438 C 5570.199219 -242.839844 5474.589844 45.71875 5271.808594 209 C 5117.550781 333.210938 4898.210938 384.480469 4601.378906 365.738281 C 4338.929688 349.171875 4048.519531 281.429688 3767.691406 215.921875 C 3256.070312 96.578125 2772.839844 -16.148438 2530.699219 194.660156 C 2399.449219 308.929688 2348.839844 508.871094 2375.96875 805.921875 C 2408.160156 1158.328125 2358.46875 1376.160156 2224.058594 1471.871094 C 2168.148438 1511.679688 2099.988281 1528.421875 2023.191406 1528.429688 C 1815.25 1528.449219 1543.75 1405.769531 1278.789062 1286.070312 C 933.808594 1130.210938 607.945312 983 443.878906 1110.210938 C 332.828125 1196.300781 307.351562 1401.769531 365.984375 1738.359375 C 427.289062 2090.25 397.328125 2312.46875 274.398438 2417.699219 C 212.867188 2470.378906 131.679688 2491.53125 36.730469 2491.53125 C -149.222656 2491.539062 -388.050781 2410.449219 -636.015625 2326.269531 C -1009.410156 2199.511719 -1395.53125 2068.421875 -1610.101562 2224.511719 C -1729.851562 2311.609375 -1786.300781 2478.789062 -1782.648438 2735.589844 L -1786.398438 2735.640625 "/>
<path fill-rule="nonzero" fill="rgb(65.919495%, 88.844299%, 93.913269%)" fill-opacity="1" d="M -1846.648438 2794.070312 L -1850.398438 2794.070312 C -1850.171875 2541.101562 -1790.789062 2374.789062 -1668.871094 2285.648438 C -1447.949219 2124.140625 -1056.148438 2248.480469 -677.242188 2368.738281 C -298.535156 2488.917969 59.15625 2602.449219 243.414062 2443.160156 C 365.894531 2337.269531 398.1875 2119.390625 342.140625 1777.078125 C 287.980469 1446.28125 316.65625 1242.398438 429.8125 1153.800781 C 599.085938 1021.261719 929.492188 1162.691406 1279.289062 1312.441406 C 1644.929688 1468.960938 2023.011719 1630.808594 2233.058594 1480.121094 C 2367.71875 1383.53125 2420.070312 1169.328125 2393.109375 825.300781 C 2370.289062 534.140625 2423.679688 336.089844 2556.328125 219.851562 C 2805.019531 1.921875 3296.558594 106.601562 3816.96875 217.441406 C 4394.929688 340.539062 4992.570312 467.828125 5343.71875 183.859375 C 5546.941406 19.511719 5645.921875 -264.449219 5646.308594 -684.269531 L 5650.058594 -684.261719 C 5649.671875 -263.238281 5550.238281 21.671875 5346.070312 186.78125 C 5188.238281 314.421875 4964.761719 369.898438 4662.96875 356.511719 C 4396.140625 344.628906 4101.308594 281.839844 3816.191406 221.109375 C 3296.730469 110.480469 2806.078125 5.96875 2558.800781 222.671875 C 2427.101562 338.078125 2374.128906 535.101562 2396.851562 825.011719 C 2423.921875 1170.460938 2371.058594 1385.738281 2235.25 1483.171875 C 2175.480469 1526.039062 2102.339844 1543.890625 2019.960938 1543.898438 C 1810.460938 1543.921875 1540.941406 1428.519531 1277.820312 1315.878906 C 929.066406 1166.589844 599.65625 1025.578125 432.125 1156.75 C 320.144531 1244.429688 291.925781 1447.148438 345.84375 1776.480469 C 402.117188 2120.179688 369.414062 2339.179688 245.867188 2445.988281 C 180.148438 2502.808594 92.777344 2525.300781 -9.457031 2525.300781 C -196.320312 2525.308594 -432.929688 2450.210938 -678.375 2372.320312 C -1056.390625 2252.339844 -1447.28125 2128.300781 -1666.660156 2288.679688 C -1787.550781 2377.058594 -1846.429688 2542.378906 -1846.648438 2794.070312 "/>
<path fill-rule="nonzero" fill="rgb(62.509155%, 63.327026%, 84.918213%)" fill-opacity="1" d="M -1912.390625 2852.789062 L -1916.140625 2852.738281 C -1912.070312 2604.789062 -1850.289062 2440.339844 -1727.269531 2349.980469 C -1501.429688 2184.128906 -1104.660156 2301.421875 -720.945312 2414.851562 C -336.8125 2528.410156 26.023438 2635.671875 214.222656 2471.410156 C 337.304688 2363.988281 372.289062 2149.269531 321.171875 1815 C 271.675781 1491.371094 303.050781 1290.230469 417.078125 1200.070312 C 589.867188 1063.46875 924.023438 1198.691406 1277.800781 1341.871094 C 1647.441406 1491.460938 2029.671875 1646.128906 2244.378906 1491.019531 C 2380.460938 1392.71875 2435.941406 1181.019531 2414.019531 843.808594 C 2395.539062 559.648438 2451.230469 364.511719 2584.28125 247.230469 C 2838.238281 23.371094 3337.46875 119.769531 3866.03125 221.839844 C 4453.050781 335.191406 5060.058594 452.410156 5419.480469 160.679688 C 5624.089844 -5.398438 5726.828125 -285.800781 5733.558594 -696.539062 L 5737.308594 -696.480469 C 5730.558594 -284.558594 5627.359375 -3.21875 5421.839844 163.601562 C 5260.320312 294.691406 5032.488281 354.5 4725.671875 346.398438 C 4454.308594 339.25 4154.890625 281.429688 3865.320312 225.519531 C 3337.699219 123.640625 2839.351562 27.398438 2586.761719 250.050781 C 2454.640625 366.511719 2399.359375 560.648438 2417.761719 843.558594 C 2439.769531 1182.171875 2383.78125 1394.949219 2246.578125 1494.058594 C 2182.671875 1540.21875 2104.191406 1559.230469 2015.808594 1559.238281 C 1804.921875 1559.25 1537.539062 1451.03125 1276.398438 1345.339844 C 923.648438 1202.589844 590.480469 1067.761719 419.402344 1203.011719 C 306.527344 1292.261719 275.605469 1492.261719 324.878906 1814.429688 C 376.203125 2150.078125 340.816406 2365.898438 216.6875 2474.230469 C 26.929688 2639.839844 -336.859375 2532.289062 -722.007812 2418.441406 C -1104.851562 2305.269531 -1500.730469 2188.238281 -1725.050781 2353 C -1847.058594 2442.621094 -1908.339844 2606.101562 -1912.390625 2852.789062 "/>
<path fill-rule="nonzero" fill="rgb(46.09375%, 82.626343%, 95.869446%)" fill-opacity="1" d="M -1979.890625 2911.828125 L -1983.628906 2911.710938 C -1975.78125 2668.671875 -1911.628906 2506.03125 -1787.511719 2414.5 C -1556.621094 2244.21875 -1154.648438 2354.460938 -765.90625 2461.058594 C -376.097656 2567.949219 -7.898438 2668.929688 184.351562 2499.621094 C 307.988281 2390.738281 345.59375 2179.160156 299.3125 1852.789062 C 254.429688 1536.21875 288.453125 1337.761719 403.328125 1246.089844 C 579.730469 1105.308594 917.859375 1234.351562 1275.839844 1370.96875 C 1649.679688 1513.640625 2036.238281 1661.160156 2255.78125 1501.519531 C 2393.25 1401.550781 2451.820312 1192.269531 2434.851562 861.71875 C 2420.628906 584.441406 2478.570312 392.179688 2612 273.960938 C 2871.398438 44.101562 3378.628906 132.171875 3915.640625 225.398438 C 4512.070312 328.960938 5128.800781 436.03125 5496.738281 136.46875 C 5702.738281 -31.238281 5809.191406 -308.140625 5822.171875 -710.03125 L 5825.921875 -709.910156 C 5812.898438 -306.871094 5706 -29.058594 5499.109375 139.378906 C 5337.148438 271.238281 5111 335.449219 4808.261719 335.449219 C 4802 335.449219 4795.730469 335.421875 4789.410156 335.371094 C 4513.351562 332.980469 4209.171875 280.171875 3915 229.089844 C 3378.898438 136.019531 2872.539062 48.109375 2614.488281 276.761719 C 2481.96875 394.179688 2424.441406 585.460938 2438.601562 861.53125 C 2455.640625 1193.449219 2396.558594 1403.78125 2257.980469 1504.550781 C 2036.808594 1665.390625 1649.28125 1517.511719 1274.511719 1374.46875 C 917.554688 1238.25 580.398438 1109.578125 405.667969 1249.019531 C 291.917969 1339.800781 258.34375 1537.121094 303.027344 1852.261719 C 349.496094 2179.980469 311.488281 2392.648438 186.832031 2502.429688 C 111.824219 2568.480469 10.503906 2593.800781 -108.140625 2593.808594 C -296.007812 2593.820312 -527.363281 2530.359375 -766.898438 2464.667969 C -1154.78125 2358.308594 -1555.859375 2248.320312 -1785.28125 2417.519531 C -1908.421875 2508.332031 -1972.078125 2670.019531 -1979.890625 2911.828125 "/>
<path fill-rule="nonzero" fill="rgb(63.945007%, 64.779663%, 85.591125%)" fill-opacity="1" d="M -2049.230469 2971.078125 L -2052.96875 2970.898438 C -2041.390625 2732.691406 -1974.898438 2571.851562 -1849.679688 2479.179688 C -1613.589844 2304.441406 -1206.199219 2407.589844 -812.230469 2507.339844 C -416.464844 2607.539062 -42.648438 2702.179688 153.789062 2527.71875 C 277.949219 2417.460938 318.125 2208.980469 276.605469 1890.378906 C 236.257812 1580.78125 272.878906 1385.011719 388.558594 1291.859375 C 568.667969 1146.828125 910.976562 1269.679688 1273.371094 1399.738281 C 1651.660156 1535.5 2042.808594 1675.890625 2267.320312 1511.621094 C 2406.171875 1410.011719 2467.808594 1203.128906 2455.75 879.148438 C 2445.679688 608.578125 2505.808594 419.171875 2639.589844 300.078125 C 2904.558594 64.210938 3420.058594 143.859375 3965.828125 228.191406 C 4572.011719 321.839844 5198.808594 418.691406 5575.550781 111.238281 C 5782.949219 -58.011719 5893.058594 -331.460938 5912.179688 -724.730469 L 5915.929688 -724.550781 C 5896.75 -330.160156 5786.191406 -55.820312 5577.929688 114.148438 C 5408.691406 252.25 5171.96875 320.710938 4854.230469 323.441406 C 4847.410156 323.488281 4840.570312 323.519531 4833.710938 323.519531 C 4558.308594 323.519531 4256.941406 276.960938 3965.261719 231.890625 C 3420.390625 147.699219 2905.738281 68.191406 2642.089844 302.878906 C 2509.199219 421.179688 2449.46875 609.628906 2459.5 879.011719 C 2471.601562 1204.328125 2409.46875 1412.25 2269.53125 1514.640625 C 2196.460938 1568.109375 2106.019531 1589.609375 2004.308594 1589.609375 C 1791.300781 1589.621094 1528.761719 1495.378906 1272.109375 1403.269531 C 910.726562 1273.570312 569.382812 1151.078125 390.910156 1294.78125 C 276.332031 1387.039062 240.160156 1581.699219 280.324219 1889.890625 C 322.015625 2209.820312 281.441406 2419.371094 156.277344 2530.53125 C 76.113281 2601.730469 -33.109375 2628.519531 -161.003906 2628.519531 C -348.875 2628.539062 -577.09375 2570.738281 -813.148438 2510.980469 C -1206.269531 2411.441406 -1612.789062 2308.519531 -1847.449219 2482.191406 C -1971.699219 2574.148438 -2037.699219 2734.058594 -2049.230469 2971.078125 "/>
<path fill-rule="nonzero" fill="rgb(52.278137%, 71.180725%, 81.028748%)" fill-opacity="1" d="M -2120.328125 3030.710938 L -2124.070312 3030.46875 C -2108.828125 2796.941406 -2040.019531 2637.851562 -1913.710938 2544.089844 C -1672.261719 2364.851562 -1259.261719 2460.898438 -859.84375 2553.78125 C -457.894531 2647.25 -78.21875 2735.550781 122.523438 2555.851562 C 247.175781 2444.269531 289.855469 2238.859375 253.007812 1927.890625 C 217.125 1625.121094 256.300781 1431.960938 372.765625 1337.378906 C 556.699219 1187.988281 903.398438 1304.648438 1270.449219 1428.160156 C 1653.390625 1557.011719 2049.359375 1690.25 2278.96875 1521.269531 C 2419.191406 1418.070312 2483.851562 1213.550781 2476.640625 896.011719 C 2470.628906 632 2532.910156 445.390625 2667.039062 325.539062 C 2937.761719 83.609375 3461.828125 154.78125 4016.691406 230.128906 C 4320.421875 271.378906 4634.429688 314.03125 4920.109375 306.800781 C 5242.660156 298.628906 5483.351562 226.070312 5655.949219 84.980469 C 5864.75 -85.710938 5978.46875 -355.761719 6003.609375 -740.621094 L 6007.351562 -740.378906 C 5982.140625 -354.421875 5867.96875 -83.5 5658.328125 87.878906 C 5485.050781 229.519531 5243.609375 302.359375 4920.210938 310.550781 C 4634.289062 317.78125 4320.058594 275.109375 4016.191406 233.851562 C 3462.210938 158.609375 2938.96875 87.558594 2669.53125 328.328125 C 2536.28125 447.410156 2474.410156 633.070312 2480.390625 895.921875 C 2487.628906 1214.769531 2422.46875 1420.308594 2281.191406 1524.289062 C 2050.019531 1694.421875 1653.109375 1560.878906 1269.261719 1431.710938 C 903.210938 1308.550781 557.464844 1192.199219 375.128906 1340.289062 C 259.742188 1434 221.011719 1626.058594 256.734375 1927.449219 C 293.734375 2239.71875 250.652344 2446.191406 125.023438 2558.640625 C 39.316406 2635.359375 -78.480469 2663.660156 -216.410156 2663.660156 C -403.875 2663.671875 -628.558594 2611.410156 -860.695312 2557.429688 C -1259.269531 2464.75 -1671.410156 2368.898438 -1911.480469 2547.101562 C -2036.851562 2640.160156 -2105.160156 2798.351562 -2120.328125 3030.710938 "/>
<path fill-rule="nonzero" fill="rgb(55.464172%, 78.118896%, 86.51886%)" fill-opacity="1" d="M -2193.339844 3090.648438 L -2197.070312 3090.328125 C -2178.21875 2861.390625 -2107.109375 2704.011719 -1979.699219 2609.210938 C -1732.71875 2425.429688 -1313.871094 2514.351562 -908.796875 2600.351562 C -500.386719 2687.058594 -114.621094 2768.941406 90.542969 2583.941406 C 215.640625 2471.128906 260.765625 2268.78125 228.492188 1965.308594 C 197.019531 1669.261719 238.707031 1478.699219 355.929688 1382.730469 C 543.828125 1228.898438 895.140625 1339.359375 1267.089844 1456.300781 C 1654.898438 1578.230469 2055.910156 1704.308594 2290.769531 1530.539062 C 2432.339844 1425.789062 2499.96875 1223.570312 2497.53125 912.339844 C 2495.5 654.738281 2559.878906 470.929688 2694.339844 350.390625 C 2971.011719 102.378906 3503.949219 165.011719 4068.199219 231.308594 C 4377.03125 267.601562 4696.390625 305.121094 4987.171875 293.019531 C 5315.601562 279.359375 5561.179688 202.390625 5737.949219 57.730469 C 5948.171875 -114.289062 6065.441406 -381.019531 6096.46875 -757.691406 L 6100.210938 -757.378906 C 6069.089844 -379.640625 5951.371094 -112.070312 5740.328125 60.640625 C 5562.898438 205.828125 5316.589844 283.070312 4987.328125 296.769531 C 4696.210938 308.898438 4376.730469 271.339844 4067.761719 235.03125 C 3504.371094 168.828125 2972.238281 106.308594 2696.851562 353.191406 C 2563.230469 472.960938 2499.261719 655.851562 2501.28125 912.308594 C 2503.730469 1224.828125 2435.601562 1428.039062 2292.988281 1533.558594 C 2209.398438 1595.410156 2105.050781 1619.589844 1987.960938 1619.589844 C 1773.929688 1619.609375 1517.210938 1538.871094 1265.960938 1459.878906 C 895.007812 1343.238281 544.632812 1233.078125 358.304688 1385.628906 C 242.136719 1480.730469 200.894531 1670.21875 232.222656 1964.910156 C 264.632812 2269.660156 219.109375 2473.058594 93.054688 2586.730469 C -113.53125 2773.011719 -500.199219 2690.921875 -909.574219 2604.019531 C -1313.828125 2518.199219 -1731.851562 2429.460938 -1977.460938 2612.210938 C -2103.960938 2706.339844 -2174.570312 2862.828125 -2193.339844 3090.648438 "/>
<path fill-rule="nonzero" fill="rgb(39.530945%, 50.912476%, 79.18396%)" fill-opacity="1" d="M -2268.230469 3150.988281 L -2271.960938 3150.621094 C -2249.53125 2926.128906 -2176.160156 2770.441406 -2047.640625 2674.628906 C -1794.960938 2486.28125 -1370.039062 2568.039062 -959.113281 2647.109375 C -543.96875 2726.988281 -151.859375 2802.421875 57.882812 2612.03125 C 183.40625 2498.070312 230.929688 2298.730469 203.160156 2002.601562 C 176.015625 1713.171875 220.152344 1525.171875 338.097656 1427.871094 C 530.046875 1269.519531 886.175781 1373.769531 1263.210938 1484.121094 C 1656.121094 1599.121094 2062.390625 1718.039062 2302.679688 1539.398438 C 2445.609375 1433.128906 2516.199219 1233.179688 2518.46875 928.128906 C 2520.328125 676.78125 2586.75 495.71875 2721.539062 374.589844 C 3004.308594 120.5 3546.421875 174.5 4120.359375 231.671875 C 4589.691406 278.421875 5075.011719 326.761719 5461.03125 213.390625 C 5898.449219 84.910156 6137.179688 -238.710938 6190.851562 -775.949219 L 6194.578125 -775.578125 C 6166.121094 -490.710938 6084.148438 -262.050781 5950.941406 -95.960938 C 5831.359375 53.121094 5671.460938 155.488281 5462.089844 216.980469 C 5075.371094 330.570312 4589.679688 282.191406 4119.988281 235.398438 C 3546.890625 178.308594 3005.589844 124.390625 2724.050781 377.378906 C 2590.089844 497.761719 2524.070312 677.921875 2522.21875 928.160156 C 2519.941406 1234.46875 2448.859375 1435.390625 2304.921875 1542.410156 C 2063.140625 1722.160156 1655.949219 1602.96875 1262.160156 1487.71875 C 886.097656 1377.640625 530.890625 1273.679688 340.484375 1430.761719 C 223.570312 1527.210938 179.871094 1714.148438 206.894531 2002.25 C 234.78125 2299.640625 186.863281 2500 60.402344 2614.800781 C -150.726562 2806.46875 -543.734375 2730.851562 -959.820312 2650.789062 C -1369.960938 2571.890625 -1794.050781 2490.289062 -2045.390625 2677.640625 C -2173.019531 2772.78125 -2245.910156 2927.609375 -2268.230469 3150.988281 "/>
<path fill-rule="nonzero" fill="rgb(66.726685%, 80.192566%, 86.584473%)" fill-opacity="1" d="M -2345.011719 3211.679688 L -2348.738281 3211.238281 C -2322.800781 2991.101562 -2247.171875 2837.050781 -2117.53125 2740.289062 C -1859.011719 2547.351562 -1427.828125 2621.910156 -1010.839844 2694.019531 C -588.730469 2767.011719 -190.027344 2835.960938 24.417969 2640.101562 C 150.355469 2525.082031 200.214844 2328.699219 176.847656 2039.75 C 153.96875 1756.808594 200.519531 1571.359375 319.164062 1472.789062 C 515.296875 1309.839844 876.476562 1407.859375 1258.871094 1511.628906 C 1657.089844 1619.691406 2068.871094 1731.441406 2314.738281 1547.878906 C 2459.019531 1440.148438 2532.5 1242.429688 2539.398438 943.421875 C 2545.058594 698.160156 2613.488281 519.808594 2748.621094 398.179688 C 3037.660156 138 3589.230469 183.289062 4173.191406 231.25 C 4648.070312 270.238281 5139.128906 310.558594 5532.050781 192.699219 C 5977.300781 59.128906 6224.179688 -264.101562 6286.769531 -795.460938 L 6290.488281 -795.019531 C 6257.308594 -513.28125 6170.75 -286.230469 6033.21875 -120.191406 C 5909.789062 28.851562 5746.210938 132.371094 5533.121094 196.289062 C 5139.539062 314.359375 4648.109375 274.011719 4172.890625 234.980469 C 3589.761719 187.109375 3038.96875 141.871094 2751.128906 400.96875 C 2616.808594 521.871094 2548.789062 699.339844 2543.148438 943.511719 C 2536.21875 1243.75 2462.238281 1442.421875 2316.980469 1550.878906 C 2069.648438 1735.550781 1656.980469 1623.558594 1257.890625 1515.25 C 876.464844 1411.738281 516.191406 1313.980469 321.558594 1475.671875 C 203.925781 1573.398438 157.8125 1757.820312 180.589844 2039.449219 C 204.054688 2329.628906 153.796875 2527.011719 26.945312 2642.871094 C -188.859375 2839.96875 -588.4375 2770.871094 -1011.480469 2697.710938 C -1427.691406 2625.738281 -1858.058594 2551.320312 -2115.28125 2743.289062 C -2244.058594 2839.410156 -2319.210938 2992.609375 -2345.011719 3211.679688 "/>
<path fill-rule="nonzero" fill="rgb(60.173035%, 61.489868%, 84.082031%)" fill-opacity="1" d="M -2423.75 3272.761719 L -2427.46875 3272.25 C -2398.078125 3056.328125 -2320.230469 2903.898438 -2189.441406 2806.230469 C -1924.898438 2608.679688 -1487.21875 2676.019531 -1063.949219 2741.140625 C -634.582031 2807.191406 -229.035156 2869.601562 -9.738281 2668.21875 C 116.578125 2552.230469 168.714844 2358.820312 149.652344 2076.921875 C 130.953125 1800.351562 179.867188 1617.398438 299.183594 1517.609375 C 499.625 1349.988281 866.078125 1441.75 1254.039062 1538.890625 C 1657.820312 1640 2075.339844 1744.550781 2326.960938 1555.960938 C 2472.589844 1446.820312 2548.960938 1251.28125 2560.429688 958.191406 C 2569.800781 718.839844 2640.199219 543.160156 2775.660156 421.109375 C 3071.191406 154.851562 3632.5 191.359375 4226.789062 230.011719 C 4707.398438 261.261719 5204.378906 293.570312 5604.359375 171.179688 C 6057.621094 32.46875 6312.738281 -290.488281 6384.289062 -816.179688 L 6388 -815.671875 C 6350.058594 -536.941406 6258.890625 -311.421875 6117 -145.351562 C 5989.660156 3.691406 5822.328125 108.398438 5605.449219 174.769531 C 5204.820312 297.359375 4707.488281 265.019531 4226.539062 233.75 C 3633.070312 195.148438 3072.519531 158.699219 2778.171875 423.898438 C 2643.5 545.238281 2573.5 720.050781 2564.179688 958.339844 C 2552.648438 1252.628906 2475.800781 1449.101562 2329.210938 1558.960938 C 2076.160156 1748.621094 1657.761719 1643.851562 1253.128906 1542.53125 C 866.117188 1445.628906 500.5625 1354.089844 301.59375 1520.488281 C 183.253906 1619.449219 134.78125 1801.378906 153.394531 2076.671875 C 172.539062 2359.769531 120.007812 2554.179688 -7.203125 2670.988281 C -227.816406 2873.578125 -634.230469 2811.050781 -1064.519531 2744.851562 C -1487.019531 2679.851562 -1923.910156 2612.621094 -2187.199219 2809.238281 C -2317.128906 2906.269531 -2394.511719 3057.890625 -2423.75 3272.761719 "/>
<path fill-rule="nonzero" fill="rgb(59.632874%, 78.120422%, 84.924316%)" fill-opacity="1" d="M -2504.5 3334.351562 L -2508.199219 3333.769531 C -2397.039062 2615.699219 -1747.058594 2703.539062 -1118.480469 2788.511719 C -681.613281 2847.570312 -268.96875 2903.328125 -44.683594 2696.398438 C 81.996094 2579.519531 136.363281 2389.039062 121.527344 2114.050781 C 106.9375 1843.71875 158.171875 1663.238281 278.152344 1562.308594 C 483.035156 1389.929688 854.980469 1475.410156 1248.761719 1565.898438 C 1658.300781 1660.011719 2081.78125 1757.328125 2339.328125 1563.671875 C 2486.300781 1453.171875 2565.511719 1259.78125 2581.488281 972.460938 C 2592.53125 773.808594 2646.171875 620.058594 2745.460938 502.429688 C 2834.539062 396.898438 2959.050781 322.621094 3126.109375 275.339844 C 3437.519531 187.199219 3847.269531 207.011719 4281.078125 227.980469 C 4767.640625 251.5 5270.761719 275.828125 5677.941406 148.839844 C 6139.398438 4.929688 6402.859375 -317.910156 6483.378906 -838.128906 L 6487.089844 -837.558594 C 6444.390625 -561.730469 6348.558594 -337.628906 6202.261719 -171.480469 C 6070.949219 -22.371094 5899.820312 83.578125 5679.050781 152.421875 C 5271.25 279.609375 4767.789062 255.261719 4280.898438 231.730469 C 3847.410156 210.769531 3437.960938 190.96875 3127.128906 278.949219 C 2778.261719 377.691406 2606.058594 598.121094 2585.230469 972.660156 C 2569.191406 1261.160156 2489.5 1455.460938 2341.578125 1566.671875 C 2082.628906 1761.371094 1658.289062 1663.851562 1247.921875 1569.550781 C 855.074219 1479.28125 484.019531 1394.011719 280.566406 1565.171875 C 161.546875 1665.300781 110.75 1844.78125 125.269531 2113.839844 C 140.171875 2390.019531 85.410156 2581.46875 -42.140625 2699.148438 C -267.71875 2907.289062 -681.210938 2851.398438 -1118.980469 2792.21875 C -1745.761719 2707.511719 -2393.890625 2619.898438 -2504.5 3334.351562 "/>
</svg>
